<?xml version="1.0" encoding="utf-8"?>
<svg version="1.1" width="2048.00" height="2048.00" viewBox="0 0 2048.0 2048.0" xmlns="http://www.w3.org/2000/svg">
  <g id="document" transform="matrix(-1, 0, 0, -1, 1021.902954, 945.306335)">
    <path d="M 516.877 253.253 C 516.877 141.821 474.909 40.52 406.893 -36.179 C 476.356 -112.878 516.877 -214.179 516.877 -325.61 C 516.877 -565.839 322.958 -759.758 82.729 -759.758 C 82.729 -759.758 304.762 -759.758 82.729 -759.758 C -139.303 -759.758 -145.97 -470.326 82.729 -470.326 C 311.429 -470.326 82.729 -470.326 82.729 -470.326 C 162.323 -470.326 227.445 -405.204 227.445 -325.61 C 227.445 -246.017 162.323 -180.895 82.729 -180.895 C 82.729 -180.895 62.604 -180.895 -140.181 -180.895 C -342.966 -180.895 -355.105 108.537 -140.181 108.537 C 74.743 108.537 82.729 108.537 82.729 108.537 C 162.323 108.537 227.445 173.659 227.445 253.253 C 227.445 332.846 162.323 397.968 82.729 397.968 C 82.729 397.968 -192.513 397.968 -373.834 397.968 C -555.154 397.968 -573.735 687.4 -373.834 687.4 C -173.933 687.4 82.729 687.4 82.729 687.4 C 322.958 687.4 516.877 493.481 516.877 253.253 Z" style="fill: rgb(38, 231, 58);"/>
  </g>
</svg>